<svg xmlns="http://www.w3.org/2000/svg" width="20" height="20" viewBox="0 0 20 20" id="music">
  <g id="Page-1" fill="none" fill-rule="evenodd" stroke="none" stroke-width="1">
    <g id="Dribbble-Light-Preview" fill="#000" transform="translate(-260 -3799)">
      <g id="icons" transform="translate(56 160)">
        <path id="music-[#995]" d="M211.988 3643h10.01v-2h-10.01v2zm-2.002-4v12.535c-1.001-.34-1.26-.535-1.988-.535a3.996 3.996 0 0 0-3.998 4 3.994 3.994 0 1 0 7.988 0v-10h10.01v6.535c-1.001-.34-1.26-.535-1.988-.535a3.996 3.996 0 0 0-3.998 4 3.994 3.994 0 1 0 7.988 0v-16h-14.014z"></path>
      </g>
    </g>
  </g>
</svg>